<svg viewBox="0 6.447674418604606 1713.9999999999995 1117.5968992248063" xmlns="http://www.w3.org/2000/svg" xmlns:xlink="http://www.w3.org/1999/xlink" overflow="visible" width="1713.9999999999995px" height="1117.5968992248063px"><defs><polygon id="masterstickerscouch-path-1" points="0 0.736500907 1713.73062 0.736500907 1713.73062 801.851244 0 801.851244"/></defs><g id="Master/Stickers/Couch" stroke="none" stroke-width="1" fill="none" fill-rule="evenodd"><g id="Couch" transform="translate(0.000000, 21.000000)"><polygon id="Fill-1" fill="#071313" points="238.781719 867.983326 219 1087.06609 238.50928 1088 311 847.207521 239.443149 837"/><polygon id="Fill-2" fill="#071313" points="1408 847.206126 1480.49072 1088 1500 1087.06609 1480.21974 867.982051 1479.55685 837"/><polygon id="Fill-3" fill="#071313" points="364.781719 864.981872 345 1084.06464 364.50928 1085 437 844.207521 365.444606 834"/><polygon id="Fill-4" fill="#071313" points="1332.21942 864.981872 1352 1084.06464 1332.49187 1085 1260 844.207521 1331.55653 834"/><g id="Group-16"><g id="Group-7"><mask id="masterstickerscouch-mask-2" fill="#fff"><use xlink:href="#masterstickerscouch-path-1"/></mask><g id="Clip-6"/><path d="M117.223194,505.681814 C117.223194,505.681814 -124.74581,190.708322 86.6002831,92.0681445 C236.261214,22.2170011 1163.67717,-90.2975758 1633.21441,119.063724 C1633.21441,119.063724 1822.13231,214.619858 1602.67587,464.830758 L1480.18714,781.425716 L265.228597,801.851244 L117.223194,505.681814 Z" id="Fill-5" fill="#3a9699" mask="url(#masterstickerscouch-mask-2)"/></g><path d="M849.075999,42.0434348 C1160.35874,42.0434348 1469.44068,86.6705933 1568.68866,146.075211 L1571.433,147.758 L1571.47637,147.777169 C1572.02252,148.024249 1572.83994,148.423294 1573.89709,148.98374 L1574.16635,149.12722 C1576.41262,150.330165 1578.90514,151.823139 1581.58208,153.624743 C1589.19709,158.74971 1596.80061,165.330381 1603.89223,173.5154 C1623.43117,196.066894 1635.42456,226.284401 1636.17748,265.11095 C1637.12586,314.017381 1620.03961,373.306173 1581.46249,443.997309 L1580.28691,446.142956 L1575.02976,443.251173 C1613.96272,372.472594 1631.11432,313.480714 1630.1786,265.227279 C1629.45337,227.828124 1617.99262,198.952618 1599.35753,177.444331 C1592.62872,169.67807 1585.42464,163.443097 1578.23206,158.602428 C1575.93515,157.05659 1573.79434,155.760114 1571.85705,154.699828 L1571.33378,154.416505 C1570.73644,154.09661 1570.19799,153.820739 1569.7229,153.587646 L1568.88908,153.19294 L1568.63361,153.08216 L1568.43895,152.959818 C1473.76537,93.4571569 1162.40349,48.0434348 849.075999,48.0434348 C538.882518,48.0434348 230.613873,92.5535586 132.619471,151.17899 L129.714521,152.959807 L129.519852,153.082159 L129.133523,153.25225 C129.027847,153.300838 128.885504,153.367593 128.707937,153.45292 L128.137895,153.732655 C127.737686,153.93286 127.297497,154.160602 126.819615,154.41652 C124.746964,155.526476 122.426972,156.916095 119.921211,158.602476 C112.728498,163.443183 105.524287,169.678205 98.7953656,177.444528 C80.1600575,198.95285 68.6991353,227.828372 67.9737618,265.227518 C67.0472243,312.998375 83.8481196,371.293948 121.96078,441.131354 L123.122236,443.251173 L117.86509,446.142956 C78.4594677,374.505097 61.0167468,314.511566 61.9748901,265.111167 C62.7279486,226.284623 74.7215212,196.067101 94.2606845,173.515575 C101.352426,165.330496 108.956069,158.749778 116.571211,153.624776 C119.042276,151.961745 121.356197,150.561692 123.464343,149.409985 L124.557844,148.824846 C125.287469,148.442679 125.890452,148.144221 126.354907,147.925918 L126.717,147.759 L129.464728,146.075225 C227.708627,87.2707735 531.571285,42.946504 839.644098,42.0570641 L849.075999,42.0434348 Z" id="Stroke-8" fill="#071313" fill-rule="nonzero"/><polygon id="Stroke-10" fill="#071313" fill-rule="nonzero" points="280.555762 605.835536 1454.99895 615.40277 1454.95822 620.402605 280.515032 610.83537"/><path d="M1304.27292,315 C1204.46105,315 1186.99445,527.449808 1194.55344,602.110041 C1194.55344,602.110041 1195.31039,634.969674 1208.99105,628.060248 C1222.67025,621.150821 1386.38213,664.458667 1428.43953,660.923172 C1428.43953,660.923172 1570.36138,484.747099 1540.69228,399.542139 C1517.78922,354.164002 1348.22338,315 1304.27292,315 Z" id="Fill-12" fill="#83cdd0"/></g><path d="M1420.87075,688.2384 L306.936599,688.2384 C284.294188,584.993309 211.341777,375.288582 52.7036906,454.543855 C52.7036906,454.543855 -11.9335958,503.931491 60.3069641,572.314036 C114.39167,623.509673 129.567646,676.833309 137.133071,749.820945 C142.679399,803.339491 178.989652,848.875491 229.988211,866.146764 C234.613063,867.711855 237.978709,868.639855 239.459185,868.639855 L1488.6,868.639855 C1489.94946,868.639855 1492.81288,867.889309 1496.74044,866.597673 C1548.27908,849.653673 1585.08137,803.836945 1590.66554,749.911127 C1598.2266,676.876945 1613.39384,623.530036 1667.49893,572.314036 C1739.73949,503.931491 1675.10366,454.543855 1675.10366,454.543855 C1516.46412,375.288582 1443.51316,584.993309 1420.87075,688.2384 Z" id="Fill-36" fill="#338386"/><path d="M1644.84036,525.386182 C1644.84036,545.114182 1628.83462,561.106909 1609.09056,561.106909 C1589.34796,561.106909 1573.34222,545.114182 1573.34222,525.386182 C1573.34222,505.658182 1589.34796,489.665455 1609.09056,489.665455 C1628.83462,489.665455 1644.84036,505.658182 1644.84036,525.386182 Z" id="Stroke-38" fill="#071313"/><path d="M163.516561,525.386182 C163.516561,545.114182 147.510818,561.106909 127.766764,561.106909 C108.022709,561.106909 92.0184227,545.114182 92.0184227,525.386182 C92.0184227,505.658182 108.022709,489.665455 127.766764,489.665455 C147.510818,489.665455 163.516561,505.658182 163.516561,525.386182 Z" id="Stroke-40" fill="#071313"/></g></g></svg>