<svg viewBox="275.60900000000004 58.979234972677524 414.20700000000005 942.6098360655736" fill="none" xmlns="http://www.w3.org/2000/svg" xmlns:xlink="http://www.w3.org/1999/xlink" overflow="visible" width="383.52500000000003px" height="872.7868852459015px"><rect id="Blush Background Color" fill="#efe7bc" x="275.60900000000004" y="58.979234972677524" width="414.20700000000005" height="942.6098360655736"/><g id="Master/Character/Standing"><g id="Lower Body Standing" transform="translate(328 543) scale(1 1)"><g id="Lower Body Standing/Short Skirt"><g id="right"><path id="Fill 1" fill-rule="evenodd" clip-rule="evenodd" d="M76.9986 348.7C75.3226 347.28 73.5646 345.781 71.3056 345.249C69.6606 344.862 67.6846 345.219 66.5126 346.203C66.0856 346.56 65.4356 346.296 65.3656 345.744C65.2766 345.032 64.2936 344.884 64.0116 345.544C59.4146 356.265 61.2846 368.444 64.2826 379.697C66.5646 388.26 69.4586 396.869 70.4776 405.555C71.2006 411.706 76.1596 416.485 82.3406 416.852L127.315 419.523C133.504 419.89 140.252 420.127 145.345 417.106C145.551 416.983 145.681 416.762 145.692 416.522C146.167 407.19 144.083 398.563 144.558 389.232C118.515 380.06 97.1126 365.746 76.9986 348.7" fill="#46b5b9"/><path id="SKIN" fill-rule="evenodd" clip-rule="evenodd" d="M172.433 220.831C169.48 186.305 163.348 152.086 157.223 117.916C155.11 106.132 152.927 94.1428 147.135 83.4628C141.342 72.7828 131.283 63.4188 118.624 60.9878C113.542 60.0118 108.121 60.2088 103.328 62.0488C98.9383 63.7338 95.2563 66.7048 92.0983 69.9878C79.6383 82.9478 75.7913 104.748 88.1593 117.281C98.6203 151.072 110.654 184.445 124.209 217.282C116.608 220.705 109.938 226.566 105.19 233.492C97.4503 244.781 94.1233 258.521 92.4243 272.103C90.7243 285.684 90.4963 299.441 88.2163 312.937C87.3343 318.152 86.2043 323.644 85.7893 329.004C81.6823 334.027 72.1213 333.252 67.3653 338.335C64.5923 341.297 64.0383 345.816 64.9443 349.77C65.8503 353.725 68.0103 357.26 70.1463 360.709C77.8313 373.128 86.0303 385.838 95.9703 396.457C95.7593 396.908 95.6493 397.176 95.6493 397.176L100.121 401.607H101.121H134.902H142.26C147.077 401.607 149.881 396.136 147.037 392.248C143.23 387.045 136.715 381.162 125.986 378.84C125.739 378.787 125.502 378.756 125.258 378.709C121.354 369.463 117.856 360.115 116.153 350.268C126.162 313.577 166.887 250.888 168.789 247.744C173.641 239.732 173.215 229.982 172.433 220.831" fill="#f2b592"/><path id="Fill 5" fill-rule="evenodd" clip-rule="evenodd" d="M122.274 371.358C120.778 365.478 122.274 371.358 113.686 377.117C110.611 379.179 107.151 380.537 103.985 382.391C101.895 383.616 99.32 383.588 97.265 382.306C91.663 378.809 87.335 373.263 85.424 366.933C82.794 358.219 84.635 348.833 83.78 339.769C83.707 339.644 83.696 339.432 83.713 339.155C83.663 338.682 83.638 337.994 83.76 338.66C83.842 337.905 83.542 335.208 83.08 333.04C82.751 331.497 81.13 330.609 79.648 331.149C73.648 333.337 67.631 335.48 64.544 342.916C61.42 350.433 65.377 358.588 68.286 366.191C72.323 376.741 74.937 387.833 76.04 399.074C76.572 404.503 81.3 410.463 86.482 412.17C91.721 413.894 97.383 413.473 102.878 413.033C107.486 412.664 113.31 409.195 115.681 405.226C121.068 396.213 129.154 388.824 138.64 384.315C138.904 381.624 123.319 375.468 122.274 371.358" fill="#46b5b9"/><path id="Fill 7" fill-rule="evenodd" clip-rule="evenodd" d="M83.7801 339.769C83.7811 339.772 83.7811 339.775 83.7821 339.777C83.9891 340.116 83.8891 339.365 83.7601 338.66C83.7411 338.839 83.7231 339.007 83.7141 339.155C83.7361 339.36 83.7601 339.564 83.7801 339.769" fill="#46b5b9"/></g><g id="Group"><path id="Fill 9" fill-rule="evenodd" clip-rule="evenodd" d="M233.439 330.575C238.855 332.433 242.538 337.697 244.033 343.224C245.529 348.752 245.191 354.588 244.841 360.303C244.523 365.514 244.204 370.726 243.885 375.937C242.694 374.721 241.906 373.172 241.183 371.63C235.262 358.985 232.493 344.879 233.196 330.934L233.465 332.291" fill="#46b5b9"/><path id="Fill 11" fill-rule="evenodd" clip-rule="evenodd" d="M246.759 393.352C246.613 392.057 246.322 390.624 245.254 389.877C244.416 389.291 243.317 389.288 242.294 389.307C230.7 389.525 219.107 389.743 207.512 389.959C205.718 389.994 199.866 394.127 200.886 395.605C200.886 395.605 202.727 403.03 203.022 406.477C203.085 407.226 203.172 408.03 203.669 408.592C204.185 409.177 205.01 409.354 205.776 409.497C218.587 411.891 232.504 413.837 244.1 407.887C244.704 407.577 245.317 407.232 245.737 406.697C246.252 406.042 246.417 405.186 246.543 404.363C247.098 400.723 247.17 397.01 246.759 393.352" fill="#46b5b9"/><path id="SKIN" fill-rule="evenodd" clip-rule="evenodd" d="M246.73 388.082C244.364 368.076 240.561 348.273 235.429 328.88C235.254 302.322 234.892 275.73 231.969 249.342C230.321 234.471 227.86 219.645 227.69 204.684C227.171 158.93 247.79 111.485 231.231 68.8297L229.076 70.5547C211.881 58.6077 186.094 68.5727 175.548 86.6597C165.002 104.748 166.475 127.513 172.073 147.687C175.616 160.461 180.676 172.869 182.701 185.968C186.343 209.536 179.931 233.767 183.339 257.369C185.991 275.727 194.459 292.807 197.649 311.078C198.842 317.91 203.535 332.416 206.018 340.27C202.409 356.822 200.885 373.902 201.503 390.894C201.713 396.664 206.588 399.258 211.905 399.929C224.116 401.469 229.138 400.066 242.025 397.195C243.171 396.94 245.198 393.793 245.994 392.866C247.047 391.64 246.926 389.741 246.73 388.082" fill="#f2b592"/><path id="SHADOW" fill-rule="evenodd" clip-rule="evenodd" d="M246.73 388.082C244.364 368.076 240.561 348.273 235.429 328.88C235.254 302.322 234.892 275.73 231.969 249.342C230.321 234.471 227.86 219.645 227.69 204.684C227.171 158.93 247.79 111.485 231.231 68.8297L229.076 70.5547C211.881 58.6077 186.094 68.5727 175.548 86.6597C165.002 104.748 166.475 127.513 172.073 147.687C175.616 160.461 180.676 172.869 182.701 185.968C186.343 209.536 179.931 233.767 183.339 257.369C185.991 275.727 194.459 292.807 197.649 311.078C198.842 317.91 203.535 332.416 206.018 340.27C202.409 356.822 200.885 373.902 201.503 390.894C201.713 396.664 206.588 399.258 211.905 399.929C224.116 401.469 229.138 400.066 242.025 397.195C243.171 396.94 245.198 393.793 245.994 392.866C247.047 391.64 246.926 389.741 246.73 388.082" fill="black" fill-opacity="0.12"/><path id="Fill 15" fill-rule="evenodd" clip-rule="evenodd" d="M247.231 377.437C246.671 374.167 246.078 370.806 244.253 367.974C240.217 361.71 231.472 359.853 223.695 359.822C215.143 359.789 205.393 362.035 201.469 369.193C200.194 371.519 199.68 374.142 199.263 376.73C198.192 383.38 197.736 390.539 201.084 396.479C201.457 397.14 204.903 401.091 205.465 400.562L201.776 395.784C201.933 389.678 207.603 384.66 213.842 383.003C220.082 381.347 226.743 382.352 233.072 383.67C238.883 384.882 245.253 389.877 247.021 397.512C246.3 393.303 247.952 381.646 247.231 377.437" fill="#46b5b9"/></g><g id="skirt"><path id="Fill 17" fill-rule="evenodd" clip-rule="evenodd" d="M260.617 108.983C258.113 95.1541 239.287 24.7151 241.483 12.9671C242.215 9.0511 244.066 4.2941 238.991 2.1441C238.292 1.8481 237.531 1.6681 236.764 1.5371C191.42 -6.1619 144.677 -2.5829 98.6295 1.4381C96.8875 1.5891 96.3525 3.5301 97.8335 4.3221C100.379 13.9121 97.4865 23.9381 93.5795 33.1991C90.3985 40.7351 86.5365 48.0641 82.0375 55.0991C63.5695 83.9771 34.5645 107.699 18.1005 137.238C15.8465 141.285 17.1445 146.118 21.1745 148.992L44.6265 165.714C63.9165 179.469 83.4465 193.359 106.026 202.832C128.606 212.304 154.89 217.072 179.249 211.575C202.184 206.399 221.016 192.879 241.661 182.921C248.379 179.68 255.827 176.751 263.364 176.07C268.42 175.613 271.948 171.571 271.176 167.299C267.656 147.861 264.137 128.421 260.617 108.983" fill="#DD5252"/><path id="Fill 20" fill-rule="evenodd" clip-rule="evenodd" d="M44.3833 156.568C43.6003 152.942 42.8853 148.818 44.2003 145.216C46.5253 138.848 53.3223 140.253 58.5493 140.951C63.6833 141.636 69.2933 141.748 73.0773 137.571C76.7623 133.506 76.9423 127.473 77.0783 122.304C77.2783 114.768 78.5173 107.072 83.4183 101.043C88.8783 94.3242 97.4013 94.0952 104.151 89.4862C109.302 85.9682 112.297 80.4982 114.451 74.7842C116.946 68.1722 118.619 61.3562 122.285 55.2412C127.118 47.1792 134.172 40.7472 142.262 36.0522C143.957 35.0682 142.415 33.4642 140.968 34.3042C130.57 40.3382 121.739 49.0142 116.798 60.1012C114.358 65.5772 113.028 71.4692 110.662 76.9752C107.335 84.7212 102.367 88.6682 94.5393 91.5612C84.3073 95.3442 77.6183 101.838 75.1543 112.737C73.9173 118.213 74.5633 123.769 73.6693 129.265C73.0993 132.773 71.8783 136.624 68.4273 138.327C64.5663 140.232 59.7773 138.722 55.7473 138.267C50.9263 137.722 45.5773 138.28 42.5903 142.591C39.6523 146.831 40.4643 152.617 41.4863 157.344C41.7803 158.709 44.6843 157.956 44.3833 156.568" fill="#F67E7D"/><path id="Fill 22" fill-rule="evenodd" clip-rule="evenodd" d="M89.6204 191.146C88.5354 179.639 102.317 176.006 110.349 171.859C116.397 168.735 121.839 164.532 126.312 159.392C131.168 153.814 134.858 147.159 136.713 139.98C138.932 131.393 137.431 122.015 141.718 113.979C148.511 101.247 163.458 95.2842 169.67 82.0182C173.484 73.8702 174.212 64.4942 175.56 55.7102C177.172 45.2172 178.783 34.7242 180.394 24.2302C180.568 23.0982 177.649 23.5952 177.496 24.5912C175.885 35.0842 174.273 45.5782 172.663 56.0722C171.172 65.7802 170.488 76.5302 165.286 85.1302C158.016 97.1472 143.226 103.193 137.785 116.51C134.517 124.506 135.852 133.499 133.431 141.732C130.977 150.069 126.015 157.584 119.589 163.399C112.81 169.535 104.607 172.118 96.8554 176.577C91.1624 179.853 86.0594 184.891 86.7234 191.922C86.8124 192.879 89.7244 192.254 89.6204 191.146" fill="#F67E7D"/><path id="Fill 24" fill-rule="evenodd" clip-rule="evenodd" d="M186.463 202.138C191.891 198.589 195.973 193.337 197.43 186.941C199.033 179.9 196.747 174.397 193.469 168.269C189.758 161.332 189.616 155.09 193.503 148.2C196.859 142.249 201.658 137.253 205.487 131.621C208.908 126.591 211.489 121.189 211.541 114.999C211.619 105.715 207.092 97.1605 205.989 88.0455C204.817 78.3625 206.996 68.2425 208.202 58.6515C209.491 48.4005 210.78 38.1505 212.069 27.9005C212.185 26.9885 209.297 27.5315 209.194 28.3455C207.985 37.9545 206.777 47.5645 205.568 57.1745C204.479 65.8435 202.801 74.6575 202.793 83.4175C202.785 92.3755 206.326 100.406 207.953 109.07C209.565 117.654 207.631 124.635 202.831 131.716C196.869 140.512 185.538 150.182 187.731 162.008C189.091 169.343 195.029 174.581 195.105 182.399C195.181 190.384 190.78 197.576 184.197 201.879C182.935 202.705 185.835 202.548 186.463 202.138" fill="#F67E7D"/><path id="Fill 26" fill-rule="evenodd" clip-rule="evenodd" d="M243.408 180.017C245.618 170.875 256.387 163.941 250.058 154.104C246.473 148.532 242.969 143.807 241.739 137.121C240.402 129.853 242.104 123.438 244.22 116.549C246.043 110.61 246.663 105.371 244.289 99.4864C241.732 93.1494 238.839 87.1684 237.082 80.5184C233.547 67.1384 232.876 53.2164 232.219 39.4594C232.18 38.6614 229.272 39.2114 229.321 40.2364C229.95 53.4014 230.591 66.7024 233.743 79.5544C235.318 85.9784 237.692 91.9364 240.384 97.9544C243.662 105.282 243.174 111.111 240.787 118.686C237.26 129.879 237.467 140.915 244.267 150.931C248.094 156.568 251.019 160.399 247.483 167.101C245.112 171.594 241.74 175.388 240.522 180.425C240.295 181.364 243.188 180.922 243.408 180.017" fill="#F67E7D"/></g></g></g><g id="Head" transform="translate(353 13) scale(1 1)"><g id="Head/Gold Locks"><g id="Group 9"><path id="SKIN" fill-rule="evenodd" clip-rule="evenodd" d="M159.152 299.493C158.533 299.167 157.894 298.784 157.573 298.162C157.302 297.638 157.3 297.02 157.303 296.43C157.34 290.077 157.376 283.723 157.411 277.371C147.047 273.919 136.303 271.604 125.436 270.482C123.547 270.287 119.365 267.247 119.365 267.247C119.604 276.359 119.446 285.482 118.893 294.582C113.057 295.536 107.143 296.012 101.23 296.001C105.184 300.205 109.139 304.41 113.094 308.614C122.154 318.246 132.548 328.533 145.746 329.339C152.974 329.78 160.339 327.071 165.558 322.051C170.778 317.031 173.771 309.776 173.612 302.537C168.634 302.886 163.566 301.818 159.152 299.493" fill="#f2b592"/><path id="SHADOW" fill-rule="evenodd" clip-rule="evenodd" d="M119.158 272.417C118.803 273.245 119.026 274.196 119.271 275.063C120.979 281.115 123.579 287.057 127.872 291.652C132.166 296.247 138.347 299.353 144.619 298.885C146.242 298.764 147.867 298.402 149.301 297.634C150.495 296.995 151.531 296.088 152.425 295.07C157.431 289.37 157.639 281.035 157.584 273.448C157.581 273.139 157.566 272.796 157.351 272.573C157.18 272.396 156.925 272.339 156.683 272.29C145.102 269.963 133.276 268.861 121.465 269.012C120.521 269.023 119.525 269.058 118.726 269.56C117.927 270.061 117.449 271.2 117.98 271.98" fill="black" fill-opacity="0.12"/><path id="SKIN" fill-rule="evenodd" clip-rule="evenodd" d="M84.3736 204.5C78.8026 198.023 67.7456 198.129 61.3656 203.812C54.9866 209.493 53.2836 219.311 56.0196 227.402C60.7496 241.391 84.5276 249.662 90.1206 232.006C89.2656 234.705 95.4506 245.182 96.8686 248.036C99.8296 253.998 103.485 259.577 108.482 264.037C118.843 273.282 133.035 278.071 146.592 279.9C164.146 282.269 182.798 279.638 197.688 270.043C213.624 259.774 224.045 242.231 228.145 223.723C232.244 205.213 230.475 185.793 225.835 167.412C223.657 158.784 220.76 150.127 215.33 143.077C210.604 136.941 204.17 132.312 197.368 128.609C173.008 115.347 141.97 113.751 117.559 126.917C90.6866 141.41 74.8396 174.073 81.8556 204.086C82.8336 203.532 83.7076 202.798 84.4226 201.932" fill="#f2b592"/><path id="SKIN" fill-rule="evenodd" clip-rule="evenodd" d="M63.2827 214.273C69.2707 209.394 75.3087 214.108 79.8877 218.241C80.0317 217.89 80.1767 217.54 80.3197 217.189C78.2157 218.421 76.3327 219.856 74.7437 221.718C73.6307 223.024 71.0847 225.899 71.5377 227.776C72.4307 231.479 79.6637 232.692 82.7717 233.084C83.9477 233.232 85.8197 231.6 83.8767 231.355C80.5957 230.942 73.5707 229.523 75.5347 224.513C76.6057 221.781 79.7417 219.538 82.1397 218.133C82.4227 217.968 82.9497 217.422 82.5717 217.081C76.1027 211.242 68.5707 207.511 60.9407 213.727C59.6407 214.786 62.5107 214.902 63.2827 214.273" fill="#f2b592"/><path id="SHADOW_2" fill-rule="evenodd" clip-rule="evenodd" d="M63.2827 214.273C69.2707 209.394 75.3087 214.108 79.8877 218.241C80.0317 217.89 80.1767 217.54 80.3197 217.189C78.2157 218.421 76.3327 219.856 74.7437 221.718C73.6307 223.024 71.0847 225.899 71.5377 227.776C72.4307 231.479 79.6637 232.692 82.7717 233.084C83.9477 233.232 85.8197 231.6 83.8767 231.355C80.5957 230.942 73.5707 229.523 75.5347 224.513C76.6057 221.781 79.7417 219.538 82.1397 218.133C82.4227 217.968 82.9497 217.422 82.5717 217.081C76.1027 211.242 68.5707 207.511 60.9407 213.727C59.6407 214.786 62.5107 214.902 63.2827 214.273" fill="black" fill-opacity="0.12"/></g><g id="hair"><path id="Fill 10" fill-rule="evenodd" clip-rule="evenodd" d="M177.104 124.909C193.313 126.664 207.63 137.551 216.201 151.42C224.77 165.289 228.143 181.834 228.76 198.126C238.581 189.418 243.291 176.231 245.246 163.253C246.349 155.923 246.667 148.256 244.206 141.263C240.925 131.945 232.96 124.831 224.009 120.652C215.057 116.474 205.126 114.906 195.3 113.884C191.386 113.476 178.082 111.157 175.5 114.127C173.012 116.988 175.776 121.205 177.104 124.909" fill="#46b5b9"/><path id="Fill 12" fill-rule="evenodd" clip-rule="evenodd" d="M230.195 197.535L230.329 195.673C230.262 196.294 230.221 196.915 230.195 197.535" fill="#FF6633"/><path id="Fill 14" fill-rule="evenodd" clip-rule="evenodd" d="M238.291 267.114C236.295 267.329 234.422 268.42 232.416 268.335C227.851 268.142 225.783 262.061 227.211 257.721C228.641 253.381 232.118 250.046 234.213 245.984C238.145 238.366 236.809 229.151 234.609 220.865C232.571 213.183 229.853 205.419 230.194 197.535L230.092 198.963C230.133 197.155 230.174 195.346 230.215 193.539C229.857 212.354 225.568 231.087 217.702 248.183C221.473 249.397 221.027 255.067 218.764 258.318C216.501 261.569 213.069 264.551 213.146 268.51C213.215 271.98 216.184 274.85 219.479 275.938C222.773 277.027 226.346 276.721 229.801 276.403C226.959 280.475 224.057 284.676 222.915 289.509C221.772 294.341 222.784 300.021 226.674 303.108C230.564 306.194 237.46 305.154 239.185 300.497C235.393 301.346 231.153 298.953 229.922 295.268C228.69 291.583 230.639 287.122 234.178 285.52C235.844 284.766 237.713 284.609 239.447 284.035C243.403 282.725 246.56 278.864 246.439 274.698C246.318 270.533 242.435 266.669 238.291 267.114" fill="#46b5b9"/><path id="Fill 16" fill-rule="evenodd" clip-rule="evenodd" d="M79.3107 274.321C79.2317 274.761 79.1527 275.202 79.0747 275.643C79.2547 275.21 79.3227 274.763 79.3107 274.321" fill="#FF6633"/><path id="Fill 18" fill-rule="evenodd" clip-rule="evenodd" d="M79.5336 273.082C79.3456 272.968 79.1526 272.897 78.9586 272.855C79.1736 273.322 79.2986 273.818 79.3106 274.32C79.3856 273.908 79.4596 273.495 79.5336 273.082" fill="#FF6633"/><path id="Fill 20" fill-rule="evenodd" clip-rule="evenodd" d="M168.416 153.078C167.861 156.224 165.164 157.443 162.557 158.713C164.745 155.305 166.777 151.787 168.645 148.168C168.732 149.832 168.694 151.502 168.416 153.078M108.093 206.582C108.104 203.932 107.365 201.213 106.911 198.571C121.099 196.004 134.789 188.978 145.492 179.207C148.76 176.224 151.772 173.014 154.581 169.638C154.075 171.831 153.744 174.085 153.336 176.172C149.851 194.008 126.521 212.94 108.093 206.582M94.1702 255.19C90.4472 254.385 85.4692 254.18 83.9902 257.69C82.3752 261.531 86.7502 264.949 89.0742 268.406C92.0032 272.762 91.2422 279.571 86.7582 282.298C82.2732 285.024 75.1332 281.396 75.5822 276.167C75.7342 274.391 77.3902 272.514 78.9582 272.855C78.1952 271.197 76.3252 269.912 74.4412 270.103C71.5612 270.396 69.4252 273.291 69.2752 276.183C69.2172 277.307 69.4042 278.409 69.7602 279.469C66.8072 275.654 64.6202 271.46 63.8672 266.596C63.7372 265.759 63.6602 264.875 63.9752 264.089C64.4792 262.828 65.8232 262.162 66.8262 261.248C74.6042 254.159 59.3492 238.857 67.0862 231.725C68.2952 230.612 69.8892 229.99 71.1022 228.882C76.7852 223.685 70.3552 213.182 74.6762 206.807C76.0002 204.851 78.1452 203.638 79.8742 202.028C80.0802 201.837 80.2752 201.637 80.4692 201.435C83.1122 203.501 86.0272 205.267 84.6022 208.941C83.6712 211.339 84.6022 208.941 83.4612 211.247C78.2762 221.732 82.4942 234.67 89.5942 243.966C92.1422 247.302 95.2372 251.131 94.1702 255.19M40.1692 142.838C40.1952 143.096 40.2052 143.351 40.2092 143.605C40.1702 143.105 40.1142 142.604 40.0552 142.109C40.1002 142.349 40.1432 142.591 40.1692 142.838M247.293 104.712C240.951 104.884 236.902 103.705 233.465 98.1634C231.508 95.0104 229.082 91.9374 225.468 90.6264C220.951 88.9864 214.266 90.8464 212.977 96.0584C212.584 97.6464 213.086 98.8004 213.554 100.305C214.269 102.605 214.851 103.405 213.59 105.602C211.918 108.513 207.854 109.439 204.813 108.938C200.031 108.151 196.404 104.366 191.523 103.893C185.717 103.331 182.426 107.781 179.675 112.361C170.209 111.177 160.71 110.259 151.191 109.637C141.267 108.987 131.111 108.669 121.571 111.479C117.27 112.746 113.23 114.643 109.473 117.011C109.15 116.514 108.812 116.028 108.468 115.546C110.234 106.704 108.046 97.2714 101.764 90.4964C93.8852 81.9984 84.1632 83.1864 74.5782 87.8944C72.2312 89.0474 65.2422 93.9674 62.8602 90.6334C61.7032 89.0134 62.1662 86.4074 60.8152 84.6244C58.5532 81.6354 54.4472 80.6184 50.8962 81.1234C40.7212 82.5704 33.6872 93.0884 31.5572 102.341C31.2292 103.759 34.1952 103.42 34.4932 102.125C35.6972 96.8954 38.1482 92.1664 41.9892 88.3854C46.3752 84.0654 56.2062 79.5704 59.2102 87.9114C60.0352 90.2024 59.6342 93.2394 62.3262 94.3564C64.7732 95.3724 67.8432 93.5914 69.9522 92.5954C74.2282 90.5764 78.3482 87.9484 82.9492 86.7064C89.4892 84.9394 95.2402 87.4984 99.5982 92.3294C104.541 97.8084 106.667 105.231 106.045 112.446C98.3612 103.541 86.9922 97.7684 75.2082 97.3184C59.7782 96.7294 44.3412 105.273 36.6472 118.66C34.7872 121.895 33.3252 125.637 34.0452 129.298C34.4032 131.123 35.2732 132.779 36.2502 134.394C36.5232 136.839 36.7912 139.284 37.0242 141.732C37.4002 145.665 37.0942 149.636 32.0252 149.994C30.4282 150.107 28.8192 149.91 27.2312 149.777C20.1522 149.184 13.1052 149.402 6.31421 151.708C-4.81979 155.489 -14.6668 165.445 -14.4598 177.832C-14.3358 185.231 -10.5608 191.747 -8.26279 198.593C-7.05679 202.183 -5.47079 206.18 -11.5078 207.136C-12.8668 207.351 -14.5668 206.765 -15.9408 206.736C-18.6558 206.681 -21.3768 207.132 -23.9318 208.05C-35.4218 212.18 -40.9748 224.657 -36.3958 235.954C-35.9218 237.124 -33.0508 236.283 -33.4988 235.178C-36.7148 227.241 -35.1028 217.593 -27.9388 212.285C-23.7088 209.151 -19.1678 208.582 -14.0628 208.891C-11.8888 209.022 -9.71079 209.334 -7.65579 208.39C-2.56979 206.052 -4.41679 200.376 -5.93079 196.239C-8.59979 188.944 -12.5458 181.732 -11.2708 173.695C-9.92079 165.178 -3.66379 158.117 4.02721 154.572C12.3822 150.723 20.5472 151.699 29.3732 151.911C32.1462 151.978 35.7082 151.722 38.0132 149.869C36.6662 151.703 34.8322 153.265 32.8672 154.39C28.6842 156.789 23.8652 157.824 19.4752 159.817C12.0842 163.173 6.01121 169.338 2.76821 176.779C0.707211 181.506 -0.161788 187.186 2.33621 191.698C5.02721 196.562 11.0632 199.103 13.0712 204.288C15.4682 210.477 10.8592 217.333 5.27121 220.917C-0.314786 224.5 -6.98979 226.203 -12.3548 230.112C-17.0088 233.504 -20.3848 238.347 -23.3478 243.285C-27.2958 249.869 -30.6988 258.139 -27.1738 264.958C-23.3398 272.377 -12.4718 275.385 -11.2378 283.644C-9.78279 293.386 -23.1658 299.733 -23.7598 309.565C-24.0918 315.072 -20.0288 320.12 -15.0538 322.503C-10.0768 324.885 -4.35979 325.099 1.15421 324.929C-0.825787 323.084 0.56821 319.448 3.02721 318.316C5.48521 317.185 8.35221 317.761 10.9922 318.356C18.1872 319.981 25.3852 321.605 32.5802 323.23C38.2122 324.502 45.0412 325.429 48.9302 321.162C50.5802 319.35 51.3352 316.914 52.6392 314.84C55.9562 309.562 62.4392 307.185 68.6122 306.325C74.7852 305.465 81.1402 305.746 87.1522 304.107C88.8722 303.639 90.8552 302.621 90.9012 300.84C90.9342 299.599 89.9752 298.583 89.0652 297.74C85.7272 294.644 82.0472 291.65 78.5452 288.534C82.5482 290.356 87.1692 290.707 91.1522 288.902C93.2322 287.959 95.2302 286.184 95.2992 283.9C95.3372 282.624 94.7642 281.421 94.4202 280.191C93.2332 275.963 95.0032 271.073 98.6212 268.584C101.205 266.805 104.576 266.164 106.697 263.853C110.785 259.402 107.701 252.148 103.645 247.67C99.5882 243.192 94.3332 238.756 94.2052 232.715C94.0082 223.412 105.955 217.929 107.848 208.998C124.651 213.726 144.515 200.029 152.775 185.806C155.396 181.293 156.07 176.463 157.072 171.439C157.562 168.977 158.052 166.294 159.382 164.117C161.395 160.823 164.26 160.724 167.232 159.036C171.788 156.449 171.73 151.143 171.436 146.469C171.365 145.362 171.241 144.267 171.094 143.18C175.615 133.539 179.162 123.364 182.001 113.133C184.727 108.679 188.189 104.197 193.848 106.707C197.159 108.176 199.955 110.484 203.645 110.992C208.187 111.616 214.648 109.701 216.834 105.279C218.637 101.631 215.035 99.3364 215.879 95.7154C217.406 89.1594 223.79 91.8164 226.467 93.9714C227.916 95.1384 229.053 96.6184 230.076 98.1564C232.006 101.058 233.296 103.836 236.65 105.311C239.602 106.609 243.041 106.504 246.184 106.418C247.303 106.388 249.238 104.659 247.293 104.712" fill="#46b5b9"/><path id="Fill 23" fill-rule="evenodd" clip-rule="evenodd" d="M97.3733 126.394C90.9573 119.343 80.3113 115.538 71.1103 119.233C62.2203 122.804 57.8633 131.422 63.7693 139.623C65.7733 142.408 67.8373 144.998 67.6633 148.64C67.4773 152.537 64.9953 156.132 62.0173 158.485C56.3413 162.968 48.4913 163.614 41.8953 166.072C35.0663 168.618 23.8393 176.036 28.6093 184.884C29.7693 187.035 31.7823 188.513 33.2973 190.38C35.3423 192.904 36.6003 195.914 36.9383 199.147C37.8443 207.787 32.5763 213.666 25.2023 217.165C16.9253 221.092 3.7283 224.457 2.3353 235.508C1.7233 240.364 4.5373 244.222 7.0793 248.054C8.8733 250.759 10.8373 253.88 10.5683 257.301C10.1653 262.434 5.9773 262.459 1.8873 263.273C-5.1207 264.665 -9.8587 272.324 -6.4677 279.158C-4.2007 283.725 0.9353 284.228 4.8113 286.814C13.9383 292.901 4.0473 302.232 -0.0156999 307.748C-6.4067 316.428 -4.7367 328.4 4.2003 334.687C5.1853 335.379 7.7623 333.997 6.4503 333.074C2.2433 330.115 -0.4097 325.645 -0.9687 320.506C-1.7467 313.352 2.3073 308.748 6.5333 303.548C11.9833 296.843 13.7743 288.382 4.8383 284.027C0.7323 282.026 -3.8107 280.557 -4.4907 275.362C-4.7887 273.085 -4.2567 270.602 -3.0587 268.642C-0.9017 265.118 2.6243 265.378 6.1313 264.642C13.9613 262.998 14.9243 255.706 11.3833 249.352C8.4463 244.083 3.4003 239.492 5.8683 232.907C8.2273 226.61 14.9683 223.543 20.7403 221.166C28.9273 217.796 37.6743 213.899 39.5933 204.28C40.3643 200.415 39.9353 196.266 38.2273 192.705C35.4763 186.966 27.9233 183.675 31.6573 176.295C37.0103 165.715 52.2023 166.63 61.3563 161.37C65.2533 159.13 68.6503 155.688 70.0113 151.309C71.5193 146.454 69.6353 142.848 66.8643 138.964C64.5073 135.661 62.6353 132.565 64.2003 128.406C65.6453 124.567 69.5223 121.649 73.3283 120.498C81.0673 118.16 89.5233 121.937 94.7123 127.639C95.5493 128.558 98.3073 127.419 97.3733 126.394" fill="#007d82"/><path id="Fill 26" fill-rule="evenodd" clip-rule="evenodd" d="M51.67 286.149C55.37 284.114 59 281.869 58.81 277.095C58.545 270.425 51.776 265.653 48.342 260.587C46.048 257.202 44.356 253.177 45.014 249.011C45.996 242.791 50.495 242.099 55.604 240.319C59.788 238.861 62.269 235.223 62.535 230.826C62.961 223.8 58.558 217.129 57.54 210.246C56.198 201.171 60.773 186.537 72.891 189.737C73.539 189.908 74.511 189.769 74.94 189.188C76.976 186.433 77.032 183.522 75.765 180.341C75.094 178.658 74.048 177.196 73.126 175.646C72.407 174.437 71.517 173.2 71.057 171.864C70.662 171.031 70.488 170.157 70.535 169.242C70.066 166.905 71.466 165.441 74.738 164.847C75.89 165.351 78.098 163.698 76.432 162.969C72.947 161.445 69.11 163.63 67.874 167.131C65.9483 172.588 71.9163 177.425 73.4934 182.392C74.1186 184.362 73.636 187.631 73.164 187.552C68.5085 186.778 64.0127 188.256 60.399 191.462C54.805 196.421 53.6 203.904 54.643 211.022C55.347 215.826 57.299 220.158 58.628 224.78C59.34 227.257 59.918 229.836 59.453 232.423C58.67 236.774 56.059 237.88 52.075 239.15C46.57 240.907 42.659 243.648 42.017 249.929C41.227 257.66 46.838 263.173 51.308 268.668C55.214 273.47 58.686 279.8 51.608 283.916C49.034 285.411 46.494 286.604 44.489 288.897C33.718 301.217 43.654 317.424 51.387 328.152C52.114 329.162 54.888 328.071 54.047 326.904C45.954 315.675 34.626 295.523 51.67 286.149Z" fill="#007d82"/><path id="Fill 28" fill-rule="evenodd" clip-rule="evenodd" d="M159.641 118.303C150.801 117.201 149.04 130.806 147.959 136.962C147.575 139.152 147.349 141.473 146.439 143.529C144.505 147.901 139.923 147.139 135.986 147.099C132.135 147.061 128.323 147.906 124.814 149.486C121.266 151.083 118.044 153.405 115.429 156.288C114.006 157.857 112.787 159.586 111.78 161.447C110.622 163.583 110.442 166.456 109.281 168.434C108.32 170.072 105.515 170.324 103.703 170.988C101.021 171.969 98.4048 173.139 95.8738 174.462C90.9118 177.057 86.3858 180.323 82.2318 184.068C81.0328 185.148 83.8878 184.994 84.5228 184.422C92.0838 177.608 100.845 172.808 110.698 170.218C111.046 170.126 111.901 169.838 111.969 169.374C112.948 162.688 116.471 156.804 121.971 152.822C125.934 149.951 130.509 148.542 135.398 148.634C138.013 148.683 140.593 149.13 143.169 148.463C147.164 147.428 149.148 144.431 150.119 140.562C150.927 137.335 152.831 119.132 157.833 119.755C158.657 119.858 161.213 118.498 159.641 118.303" fill="#007d82"/></g></g></g><g id="Upper Body" transform="translate(244 295) scale(1 1)"><g id="Upper Body/Jacket"><g id="left"><path id="SKIN" fill-rule="evenodd" clip-rule="evenodd" d="M364.812 139.501C365.694 139.501 367.951 138.185 366.027 138.185C365.145 138.185 362.888 139.501 364.812 139.501" fill="#f2b592"/><path id="SKIN" fill-rule="evenodd" clip-rule="evenodd" d="M421.761 179.213C420.074 172.725 414.461 167.236 407.81 166.401C406.108 166.188 404.093 166.112 403.15 164.68C402.534 163.746 402.613 162.535 402.714 161.422C403.277 155.252 403.837 149.082 404.4 142.911C404.519 141.599 404.624 140.208 404.038 139.027C403.205 137.347 401.243 136.596 399.431 136.119C391.903 134.142 383.806 134.383 376.409 136.805L370.459 144.856C369.187 151.711 368.985 158.763 369.865 165.68C370.001 166.76 370.152 167.919 369.647 168.884C369.019 170.085 367.601 170.587 366.35 171.111C361.239 173.253 356.89 177.81 356.19 183.307C355.49 188.805 359.298 194.846 364.794 195.558C366.353 195.76 368.095 195.605 369.321 196.589C370.476 197.516 370.751 199.124 371.127 200.557C372.271 204.916 375.106 208.809 378.904 211.234C381.111 212.645 383.841 213.577 386.348 212.822C391.617 211.235 393.394 203.227 398.872 202.704C401.016 202.5 403.054 203.591 405.179 203.931C409.816 204.672 414.331 201.736 417.275 198.078C421.477 192.855 423.448 185.701 421.761 179.213" fill="#f2b592"/><path id="Fill 38" fill-rule="evenodd" clip-rule="evenodd" d="M411.055 101.769C410.191 91.2439 408.666 80.7719 406.494 70.4369C405.201 64.2849 403.582 57.9749 399.71 53.0229C394.557 46.4349 386.274 43.2749 378.413 40.4149C355.794 32.1819 309.94 23.2599 309.94 23.2599C307.535 23.3299 305.52 25.3189 304.696 27.5779C303.871 29.8369 304.002 32.3209 304.227 34.7159C305.886 52.4319 312.17 69.6949 322.287 84.3319C323.51 86.1009 324.831 87.8739 326.653 89.0169C329.016 90.4979 331.924 90.7429 334.706 90.9469C339.871 91.3269 345.035 91.7059 350.201 92.0859C351.271 92.1649 352.438 92.2849 353.204 93.0359C353.938 93.7529 354.108 94.8529 354.237 95.8709L357.565 121.991C357.674 122.854 357.825 123.796 358.473 124.377C359.027 124.873 359.815 124.985 360.554 125.071C375.541 126.813 390.717 126.933 405.73 125.427C406.766 125.324 407.857 125.19 408.687 124.563C409.67 123.82 410.073 122.55 410.356 121.351C411.866 114.967 411.592 108.307 411.055 101.769" fill="#845A47"/><path id="Fill 40" fill-rule="evenodd" clip-rule="evenodd" d="M422.981 119.532C422.828 118.197 422.553 116.722 421.479 115.914C420.652 115.29 419.546 115.221 418.511 115.179C398.311 114.361 378.057 114.85 357.92 116.641C355.386 116.866 352.914 117.649 350.781 119.036C349.704 119.737 348.827 120.516 348.776 121.215C348.196 129.168 347.628 137.28 349.547 145.02C349.938 146.591 350.517 148.26 351.866 149.154C353.095 149.968 354.675 149.948 356.149 149.912C375.327 149.445 394.556 151.183 413.339 155.079C414.605 155.342 416.038 155.583 417.095 154.84C417.809 154.339 418.184 153.493 418.51 152.684C422.719 142.234 424.272 130.725 422.981 119.532" fill="#CCB4A8"/><path id="SKIN" fill-rule="evenodd" clip-rule="evenodd" d="M363.543 189.51C365.856 193.076 367.87 196.791 369.576 200.686C370.131 201.95 373.003 201.115 372.475 199.909C370.696 195.851 368.609 191.959 366.198 188.241C365.499 187.163 362.731 188.257 363.543 189.51" fill="#f2b592"/><path id="SKIN" fill-rule="evenodd" clip-rule="evenodd" d="M401.999 198.293C398.584 200.459 395.45 202.993 392.603 205.863C391.353 207.121 394.163 207.416 394.991 206.581C397.685 203.866 400.647 201.497 403.876 199.449C404.412 199.109 404.574 198.504 404.067 198.084C403.526 197.635 402.5 197.976 401.999 198.293" fill="#f2b592"/><path id="SHADOW" fill-rule="evenodd" clip-rule="evenodd" d="M363.543 189.51C365.856 193.076 367.87 196.791 369.576 200.686C370.131 201.95 373.003 201.115 372.475 199.909C370.696 195.851 368.609 191.959 366.198 188.241C365.499 187.163 362.731 188.257 363.543 189.51" fill="black" fill-opacity="0.12"/><path id="SHADOW_2" fill-rule="evenodd" clip-rule="evenodd" d="M401.999 198.293C398.584 200.459 395.45 202.993 392.603 205.863C391.353 207.121 394.163 207.416 394.991 206.581C397.685 203.866 400.647 201.497 403.876 199.449C404.412 199.109 404.574 198.504 404.067 198.084C403.526 197.635 402.5 197.976 401.999 198.293" fill="black" fill-opacity="0.12"/><path id="Fill 51" fill-rule="evenodd" clip-rule="evenodd" d="M356.399 73.5389C355.07 78.7349 352.969 83.5029 351.229 88.5409C350.27 91.3199 350.533 94.3659 354.003 94.7219C356.392 94.9679 358.535 93.6029 360.183 92.0499C364.336 88.1379 368.336 85.0669 373.317 82.2249C375.003 81.2629 372.416 81.0429 371.563 81.5299C368.738 83.1419 365.889 84.7569 363.281 86.7089C362.205 87.5149 361.17 88.3679 360.194 89.2929C359.268 90.1709 357.984 92.1129 356.873 92.6479C350.962 95.4909 354.987 86.0979 355.667 84.3939C357.13 80.7199 358.303 76.9549 359.283 73.1249C359.515 72.2149 356.628 72.6439 356.399 73.5389" fill="#56322B"/></g><g id="right"><path id="SKIN" fill-rule="evenodd" clip-rule="evenodd" d="M142.087 184.781C140.65 181.59 138.792 178.141 135.472 177.034C131.011 175.546 125.066 178.696 121.906 175.213C122.447 168.093 122.988 160.972 123.529 153.851L116.401 147.866C109.634 144.993 101.633 145.181 95.0081 148.369C93.7601 148.97 92.4991 149.731 91.8341 150.948C91.1371 152.224 91.2181 153.766 91.2941 155.219C91.5511 160.116 91.5351 165.028 91.2481 169.924C91.1531 171.54 90.8911 173.396 89.5181 174.255C88.5901 174.835 87.4201 174.773 86.3281 174.842C77.5881 175.385 72.2021 184.892 70.8991 193.552C69.8431 200.57 70.4651 208.108 74.2121 214.135C77.9591 220.163 85.2991 224.245 92.2361 222.751C94.7131 222.218 97.0781 221.024 99.6101 221.029C103.145 221.036 106.202 223.339 109.507 224.594C114.803 226.604 121.086 225.779 125.683 222.469C130.279 219.157 133.053 213.46 132.823 207.799C132.779 206.706 132.665 205.494 133.344 204.636C134.366 203.344 136.358 203.727 138 203.581C141.762 203.245 144.452 199.419 144.777 195.656C145.102 191.893 143.637 188.225 142.087 184.781" fill="#f2b592"/><path id="Fill 12" fill-rule="evenodd" clip-rule="evenodd" d="M178.42 88.2762L184.712 73.2792C185.018 72.6932 185.272 72.0762 185.484 71.4382L199.493 38.0492L189.254 41.5002C189.306 37.2392 189.181 32.9772 188.834 28.7302L174.451 28.9262C149.715 35.0312 125.237 42.1822 101.106 50.3532C96.8158 51.8062 92.3538 53.4072 89.2748 56.7292C86.5388 59.6832 85.2268 63.6532 84.1078 67.5222C77.9228 88.9102 75.3518 111.339 76.5368 133.573C76.6248 135.22 76.7808 136.993 77.8528 138.248C79.3018 139.945 81.8398 140.07 84.0718 140.036C101.826 139.766 119.553 137.8 136.935 134.173C137.918 133.967 138.954 133.729 139.678 133.033C140.862 131.896 140.783 130.015 140.652 128.379C139.852 118.41 140.313 108.343 141.994 98.4842L178.42 88.2762Z" fill="#845A47"/><path id="Fill 14" fill-rule="evenodd" clip-rule="evenodd" d="M145.679 121.241C145.553 119.703 145.322 117.988 144.113 117.03C143.187 116.297 141.923 116.207 140.743 116.152C116.611 115.028 92.3905 115.761 68.3695 118.343C66.3595 118.559 64.2615 118.819 62.5855 119.952C60.9925 121.031 59.9765 122.78 59.2835 124.575C57.6445 128.819 57.5725 133.648 59.0835 137.939L59.7675 137.885C59.6375 145.264 60.1865 153.984 66.4165 157.943C70.1975 160.345 75.0035 160.182 79.4735 159.889C99.8875 158.55 120.441 156.179 140.724 158.848C142.516 159.083 144.726 159.179 145.7 157.658C146.136 156.977 146.193 156.13 146.232 155.323C146.793 143.967 146.609 132.574 145.679 121.241" fill="#CCB4A8"/><path id="SKIN" fill-rule="evenodd" clip-rule="evenodd" d="M134.776 199.52C136.123 197.04 137.084 194.468 137.761 191.732C138.144 190.187 135.371 190.743 134.893 191.622C132.9 195.296 131.806 199.26 131.628 203.437C131.559 205.016 134.513 204.657 134.573 203.253C134.745 199.256 135.776 195.541 137.683 192.025C136.727 191.988 135.771 191.952 134.816 191.915C134.189 194.446 133.228 196.829 131.986 199.118C131.184 200.594 134.123 200.724 134.776 199.52" fill="#f2b592"/><path id="SKIN" fill-rule="evenodd" clip-rule="evenodd" d="M93.0373 218.571C96.2033 219.404 99.3703 220.236 102.537 221.069C103.427 221.303 105.933 219.962 104.323 219.538C101.156 218.705 97.9893 217.873 94.8223 217.04C93.9333 216.806 91.4273 218.147 93.0373 218.571" fill="#f2b592"/><path id="Fill 20" fill-rule="evenodd" clip-rule="evenodd" d="M119.054 81.4031C124.119 84.8711 128.538 88.9211 132.45 93.6491C134.093 95.6341 136.11 97.5481 138.806 96.0401C142.12 94.1851 139.978 89.4061 138.598 86.9641C135.649 81.7471 131.794 76.9041 128.406 71.9661C127.931 71.2741 125.118 72.1971 125.7 73.0431C127.906 76.2581 130.112 79.4721 132.318 82.6871C133.507 84.4201 138.707 90.4121 137.599 93.0691C136.529 95.6321 135.477 92.9231 134.66 91.9551C133.296 90.3381 131.884 88.7731 130.369 87.2941C127.715 84.7021 124.819 82.4201 121.761 80.3261C120.991 79.7991 118.403 80.9571 119.054 81.4031" fill="#56322B"/><path id="Fill 32" fill-rule="evenodd" clip-rule="evenodd" d="M156.628 93.5502C162.252 91.8982 168.241 89.9052 171.244 84.4502C175.041 77.5512 172.76 69.1572 173.421 61.7102C173.543 60.3282 170.605 60.7902 170.498 61.9822C170.01 67.4822 171.034 73.0392 170.257 78.5112C169.112 86.5712 163.3 89.6542 156.148 91.7552C154.399 92.2682 154.857 94.0702 156.628 93.5502" fill="#56322B"/><path id="SHADOW_3" fill-rule="evenodd" clip-rule="evenodd" d="M134.776 199.52C136.123 197.04 137.084 194.468 137.761 191.732C138.144 190.187 135.371 190.743 134.893 191.622C132.9 195.296 131.806 199.26 131.628 203.437C131.559 205.016 134.513 204.657 134.573 203.253C134.745 199.256 135.776 195.541 137.683 192.025C136.727 191.988 135.771 191.952 134.816 191.915C134.189 194.446 133.228 196.829 131.986 199.118C131.184 200.594 134.123 200.724 134.776 199.52" fill="black" fill-opacity="0.12"/><path id="SHADOW_4" fill-rule="evenodd" clip-rule="evenodd" d="M93.0373 218.571C96.2033 219.404 99.3703 220.236 102.537 221.069C103.427 221.303 105.933 219.962 104.323 219.538C101.156 218.705 97.9893 217.873 94.8223 217.04C93.9333 216.806 91.4273 218.147 93.0373 218.571" fill="black" fill-opacity="0.12"/></g><g id="torso"><path id="Fill 1" fill-rule="evenodd" clip-rule="evenodd" d="M338.402 222.017C335.124 204.828 333.597 187.305 333.853 169.808C334.004 159.538 334.766 149.251 334.006 139.008C333.137 127.284 330.289 115.808 327.452 104.399C319.664 73.0855 310.4 39.4075 285.034 19.4635C281.914 17.0115 278.373 13.7115 276.648 10.2855C276.741 9.18845 276.822 8.08945 276.877 6.99045C276.946 5.61945 276.865 3.99545 275.72 3.23745C275.007 2.76645 274.091 2.78945 273.238 2.82145C263.156 3.19145 253.031 2.32345 243.154 0.270451C241.016 -0.299549 238.896 -0.936549 236.808 -1.66655C234.756 -2.38355 232.464 -3.14755 230.349 -3.10755C229.854 -3.26655 229.357 -3.42155 228.864 -3.58755C227.69 -3.98055 226.225 -4.33155 225.354 -3.45155C224.845 -2.93755 224.73 -2.15855 224.702 -1.43555C224.674 -0.75855 224.702 -0.0845495 224.765 0.587451C224.515 1.03945 224.277 1.49945 224.051 1.95845C217.909 14.4705 211.765 26.9815 205.623 39.4935C197.797 55.4314 189.862 71.7244 187.515 89.3234C185.632 103.441 187.439 117.761 189.246 131.89C192.447 156.924 195.648 181.957 198.849 206.992C199.94 215.523 196.464 231.597 192.78 245.354C189.817 256.413 198.108 267.236 209.557 267.323C234.873 267.516 260.553 275.304 286.021 278.783C295.58 280.087 305.402 280.771 314.798 278.58C324.193 276.39 333.201 270.968 337.842 262.511C344.481 250.414 340.987 235.572 338.402 222.017" fill="#EDF1F4"/><path id="Fill 4" fill-rule="evenodd" clip-rule="evenodd" d="M227.587 95.4071C239.612 106.145 261.421 125.372 273.447 136.11C274.155 136.742 274.942 137.409 275.891 137.462C277.106 137.53 278.114 136.581 278.923 135.673C283.004 131.091 286.217 125.738 288.339 119.98C288.696 119.012 289.276 117.844 290.308 117.867C291.126 117.885 291.686 118.671 292.108 119.372C295.427 124.892 298.746 130.412 302.066 135.932C307.517 125.275 316.216 107.274 317.785 95.4071L327.045 122.843C323.454 135.365 313.122 161.279 305.397 171.768C304.757 172.636 303.791 173.601 302.774 173.244C302.191 173.04 301.841 172.462 301.538 171.926C297.679 165.092 293.819 158.257 289.96 151.423C286.795 158.04 283.629 164.656 280.464 171.273C280.087 172.06 279.648 172.911 278.846 173.258C277.576 173.806 276.203 172.822 275.17 171.902C261.796 159.999 233.273 132.425 219.899 120.521L227.587 95.4071Z" fill="#C5CFD6"/><path id="Fill 6" fill-rule="evenodd" clip-rule="evenodd" d="M246.406 34.9462C254.481 39.5842 264.538 38.2122 271.274 31.8612C272.556 30.6512 269.735 30.3362 268.884 31.1382C263.321 36.3832 255.24 37.1442 248.665 33.3682C247.667 32.7952 245.071 34.1792 246.406 34.9462" fill="#C5CFD6"/><path id="Fill 8" fill-rule="evenodd" clip-rule="evenodd" d="M308.092 249.457C282.62 250.494 257.611 242.281 237.537 226.617C236.697 225.962 234.063 227.189 235.259 228.123C255.905 244.234 281.613 252.323 307.749 251.26C309.27 251.197 310.086 249.376 308.092 249.457" fill="#C5CFD6"/><path id="Fill 24" fill-rule="evenodd" clip-rule="evenodd" d="M219.64 137.11C219.936 118.159 220.232 99.2082 220.527 80.2572C220.849 59.6142 221.193 38.7912 225.807 18.6682L211.296 15.5212C192.517 18.5682 174.366 25.4402 158.276 35.5932C154.524 37.9612 150.781 40.6092 148.415 44.3612C145.446 49.0712 145.014 54.9052 144.894 60.4712C144.525 77.5502 146.313 94.6752 150.201 111.31C152.809 122.469 156.387 133.703 155.451 145.125C154.61 155.37 150.168 165.735 153.064 175.598C154.269 179.705 156.699 183.42 157.499 187.624C158.509 192.933 156.82 198.331 155.429 203.553C149.345 226.411 148.83 250.725 153.904 273.826C154.455 276.341 156.832 278.008 159.39 277.712C180.376 275.28 201.108 270.657 221.14 263.945C226.521 262.142 229.578 256.485 228.146 250.994C218.545 214.178 219.044 175.29 219.64 137.11" fill="#845A47"/><path id="Fill 26" fill-rule="evenodd" clip-rule="evenodd" d="M169.429 209.851C167.972 212.873 166.698 215.985 165.614 219.161C165.502 219.489 165.391 219.836 165.465 220.175C165.708 221.276 167.327 221.103 168.369 220.67C180.11 215.801 192.451 212.386 205.025 210.527C206.191 210.354 207.437 210.16 208.303 209.36C208.975 208.739 209.313 207.843 209.576 206.967C210.758 203.035 210.863 198.783 209.873 194.796C209.7 194.097 209.467 193.364 208.913 192.903C208.29 192.384 207.413 192.331 206.603 192.33C193.879 192.31 182.035 198.849 171.98 206.644C171.052 207.364 170.04 208.293 170.128 209.464" fill="#CCB4A8"/><path id="Fill 28" fill-rule="evenodd" clip-rule="evenodd" d="M234.79 52.3382C234.678 40.4102 229.306 20.0042 226.203 9.18623C225.036 5.11623 220.732 2.76723 216.701 4.06223C199.297 9.65523 185.412 18.7262 172.271 32.4362C168.41 36.4652 168.25 42.7792 171.881 47.0172C179.396 55.7892 186.911 64.5612 194.427 73.3332C196.177 75.3762 198.033 77.7212 197.847 80.4052C197.685 82.7442 196.006 84.6552 194.459 86.4172C188.475 93.2322 183.189 100.662 178.715 108.551C177.084 111.426 175.517 114.557 175.735 117.855C175.979 121.505 178.349 124.615 180.573 127.521C195.612 147.168 209.676 169.798 219.898 192.331C231.054 147.006 235.227 99.0122 234.79 52.3382" fill="#CCB4A8"/><path id="Fill 30" fill-rule="evenodd" clip-rule="evenodd" d="M165.346 181.639C168.084 175.225 171.443 169.185 175.433 163.467C176.148 162.443 173.263 162.724 172.749 163.46C168.676 169.296 165.25 175.487 162.456 182.031C162.104 182.856 164.959 182.545 165.346 181.639" fill="#56322B"/><path id="Fill 34" fill-rule="evenodd" clip-rule="evenodd" d="M201.76 82.2298C209.723 89.6358 217.335 97.3858 224.61 105.469C225.492 106.45 228.241 105.278 227.261 104.189C219.858 95.9628 212.097 88.0878 203.992 80.5508C203.047 79.6728 200.53 81.0858 201.76 82.2298" fill="#845A47"/><path id="Fill 43" fill-rule="evenodd" clip-rule="evenodd" d="M335.154 125.079C331.776 91.7665 328.995 56.9125 311.364 28.4455C308.782 24.2765 305.31 19.9235 300.434 19.3975C295.557 18.8715 290.659 25.1885 294.052 28.7305L325.008 115.701C325.325 145.392 326.088 216.232 326.404 245.923C326.428 248.145 326.474 250.461 327.497 252.435C328.675 254.71 330.957 256.165 333.135 257.513C338.286 260.7 343.436 263.885 348.587 267.072C351.833 269.079 355.901 266.265 355.186 262.516C346.512 217.025 339.827 171.154 335.154 125.079" fill="#845A47"/><path id="Fill 45" fill-rule="evenodd" clip-rule="evenodd" d="M352.396 210.264C352.227 209.535 352.027 208.789 351.564 208.203C350.56 206.937 348.713 206.824 347.097 206.817C344.294 206.805 341.491 206.794 338.687 206.783C337.186 206.777 335.102 207.421 335.403 208.893C334.816 210.043 334.705 211.365 335.021 212.617C335.626 215.004 335.647 217.661 337.447 219.263C338.238 219.968 339.265 220.341 340.281 220.646C344.089 221.786 348.122 222.172 352.078 221.775C352.445 221.738 352.837 221.682 353.107 221.429C353.437 221.116 353.472 220.609 353.476 220.154C353.511 216.829 353.148 213.501 352.396 210.264" fill="#CCB4A8"/><path id="Fill 53" fill-rule="evenodd" clip-rule="evenodd" d="M316.073 87.765C314.083 91.27 312.093 94.776 310.102 98.282C309.372 99.568 312.294 99.403 312.831 98.457C314.821 94.952 316.811 91.446 318.802 87.94C319.532 86.654 316.609 86.819 316.073 87.765" fill="#845A47"/><path id="Fill 55" fill-rule="evenodd" clip-rule="evenodd" d="M339.536 103.473C339.203 101.702 338.902 100.337 338.665 99.6286C335.91 91.4236 326.5 87.8716 318.217 85.3636C321.338 79.3146 324.46 73.2656 327.582 67.2166C329.742 63.0316 331.961 58.5766 331.644 53.8776C331.318 49.0116 328.331 44.7776 325.351 40.9166C318.231 31.6926 310.37 22.8066 300.555 16.5266C292.642 11.4626 283.278 8.23256 273.967 8.39856C273.798 12.9036 273.11 17.4706 271.212 21.1636C306.243 68.0856 325.756 132.355 325.831 192.331C331.393 183.244 335.373 170.773 338.125 159.313C342.518 141.009 343.017 121.972 339.536 103.473" fill="#CCB4A8"/></g></g></g><g id="Expression" transform="translate(468 165) scale(1 1)"><g id="Expression/Joy"><path id="Fill 1" fill-rule="evenodd" clip-rule="evenodd" d="M4.6203 88.6879C7.3373 92.9479 11.9783 95.7209 16.8563 97.0379C28.2963 100.125 41.4473 95.1349 47.9603 85.2379C43.5243 85.0909 39.3523 83.2179 35.3133 81.3769C24.5503 76.4709 13.6333 71.4699 4.6063 63.8239C4.0983 65.1669 3.5903 66.5099 3.0813 67.8539L4.0983 65.1669C4.0983 65.1669 0.657301 82.4739 4.6203 88.6879" fill="#EFEAEB"/><path id="Fill 3" fill-rule="evenodd" clip-rule="evenodd" d="M5.95829 88.0903C2.54129 81.9753 4.03629 72.8953 5.35229 66.0673C11.5253 70.8193 18.2713 74.6203 25.3053 78.0123C31.8413 81.1653 38.6703 85.0143 45.9623 86.0003C36.5923 98.2633 15.7813 101.999 5.95829 88.0903M48.4973 84.3173C40.6393 83.6873 32.9503 79.1493 25.9793 75.7153C18.8803 72.2193 12.0643 68.2713 5.94329 63.2263C5.11429 62.5423 3.52829 62.9743 3.14929 63.9753C2.97929 64.4223 2.81129 64.8703 2.64129 65.3183V65.3193C2.30229 66.2133 1.68829 68.5463 2.02529 68.6323C0.858294 75.3153 0.0812936 83.3093 3.17929 89.0743C3.20029 89.1453 3.23329 89.2153 3.28329 89.2853C14.5703 105.266 39.3943 99.5453 49.3243 85.3263C49.7353 84.7373 48.9663 84.3553 48.4973 84.3173" fill="black"/><path id="Fill 6" fill-rule="evenodd" clip-rule="evenodd" d="M48.3487 16.7309C41.5077 14.7859 34.1507 16.8109 29.2687 21.7579C28.1487 22.5029 27.0557 23.3089 26.0177 24.2269C25.2397 24.9169 26.0077 25.2499 26.8517 25.2659C27.2837 25.7439 29.1607 25.4839 29.5957 24.8149C30.1237 24.0049 30.7137 23.2659 31.3487 22.5859C31.6667 22.3649 31.9867 22.1449 32.3097 21.9299C35.7857 19.8829 39.6677 18.7509 43.8577 18.6719C44.2877 18.6649 44.8257 18.4119 45.2247 18.0999C45.6787 18.1709 46.1357 18.2639 46.5967 18.3879C47.5787 18.6509 50.0147 17.2059 48.3487 16.7309" fill="black"/><path id="Fill 9" fill-rule="evenodd" clip-rule="evenodd" d="M82.8734 24.1986C82.8394 24.1406 82.8004 24.0886 82.7664 24.0316C82.7684 24.0316 82.7704 24.0296 82.7724 24.0296C82.7634 24.0176 82.7534 24.0086 82.7434 23.9976C80.2554 19.9736 75.8744 17.9516 71.2634 18.3556C70.1764 18.2896 69.0714 18.3186 67.9604 18.4506C66.5854 18.6136 65.5294 20.2216 67.5454 19.9826C67.8654 19.9436 68.1844 19.9196 68.5004 19.9036C68.6044 20.0846 68.9284 20.1726 69.5634 20.0546C69.8304 20.0056 70.0964 19.9686 70.3604 19.9416C74.1344 20.2756 77.5614 22.1806 80.0764 25.1436C80.6134 25.7766 83.3134 24.9416 82.8734 24.1986" fill="black"/><path id="Fill 11" fill-rule="evenodd" clip-rule="evenodd" d="M75.8363 46.6752C75.8363 49.1362 73.8413 51.1312 71.3803 51.1312C68.9193 51.1312 66.9253 49.1362 66.9253 46.6752C66.9253 44.2142 68.9193 42.2192 71.3803 42.2192C73.8413 42.2192 75.8363 44.2142 75.8363 46.6752" fill="black"/><path id="Fill 13" fill-rule="evenodd" clip-rule="evenodd" d="M43.5372 46.6752C43.5372 49.1362 41.5422 51.1312 39.0812 51.1312C36.6202 51.1312 34.6252 49.1362 34.6252 46.6752C34.6252 44.2142 36.6202 42.2192 39.0812 42.2192C41.5422 42.2192 43.5372 44.2142 43.5372 46.6752" fill="black"/></g></g><g id="Facial Hair" transform="translate(452 215) scale(145 59)"><g id="Facial Hair/None" stroke="none" stroke-width="1" fill="none" fill-rule="evenodd" fill-opacity="0"/></g></g></svg>