<svg viewBox="557.05 92.41666666666663 599.8999999999996 1031.6279069767443" xmlns="http://www.w3.org/2000/svg" overflow="visible" xmlns:xlink="http://www.w3.org/1999/xlink" width="599.8999999999996px" height="1031.6279069767443px"><g id="Master/Stickers/Mobile Phone" stroke="none" stroke-width="1" fill="none" fill-rule="evenodd"><g id="phone" transform="translate(558.000000, 96.000000)"><path d="M537.003317,1019 L106.918537,1019 C88.8887569,1019 73.8101766,1004.62864 72.0853107,985.800589 L0.163468374,40.220777 C-1.8106633,18.6588494 14.3476244,0 34.9966951,0 L465.080141,0 C483.111255,0 498.189835,14.3727538 499.913368,33.2008097 L571.836543,978.777825 C573.810675,1000.34115 557.651054,1019 537.003317,1019 Z" id="Stroke-9" fill="#071313"/><path d="M563.983207,1019 L133.651292,1019 C115.611151,1019 100.522573,1004.62864 98.7980494,985.800589 L12.1637608,40.220777 C10.187161,18.6588494 26.3560673,0 47.0170034,0 L477.347584,0 C495.389059,0 510.476304,14.3727538 512.200827,33.2008097 L598.836449,978.777825 C600.811715,1000.34115 584.642809,1019 563.983207,1019 Z" id="Stroke-1" fill="#389093"/><path d="M554.873503,945.979339 L474.316818,68.6054196 C472.983151,54.0832972 461.321909,43 447.379149,43 L344.246245,43 L345.521172,56.8921832 C346.848164,71.3374837 335.993264,83.8370964 322.123929,83.8370964 L188.653107,83.8370964 C176.541969,83.8370964 166.41331,74.209224 165.255863,61.5964737 L163.548395,43 L81.0626318,43 C65.0960088,43 52.6003908,57.3894301 54.126298,74.0192645 L134.681649,951.39458 C136.016651,965.915306 147.676558,977 161.619318,977 L527.93717,977 C543.903793,977 556.400746,962.609173 554.873503,945.979339 Z" id="Stroke-7" fill="#ffffff"/><path d="M162.165814,804.589176 L171.08178,901.495034 C172.830244,920.495498 188.121626,935 206.405033,935 L475.512257,935 C496.451085,935 512.836427,916.171062 510.834175,894.409429 L501.916873,797.503572 C500.169744,778.503107 484.879698,764 466.596291,764 L197.487731,764 C176.550239,764 160.163562,782.828938 162.165814,804.589176 Z" id="Stroke-3" fill="#e6f5f5"/><path d="M446.126732,543 L176.549698,543 C155.574314,543 139.160367,561.910816 141.166115,583.765679 L150.488359,685.350737 C152.239876,704.433826 167.557954,719 185.87328,719 L455.448976,719 C476.42436,719 492.839645,700.089184 490.833897,678.234321 L481.510315,576.649263 C479.758798,557.566174 464.442058,543 446.126732,543 Z" id="Stroke-5" fill="#e6f5f5"/><path d="M104.165903,172.746862 L129.899208,453.36487 C131.648618,472.43915 146.948273,487 165.241572,487 L434.493057,487 C455.443214,487 471.83742,468.096514 469.834085,446.251738 L444.099444,165.63373 C442.35137,146.55945 427.053051,132 408.759752,132 L139.506932,132 C118.558111,132 102.162568,150.902087 104.165903,172.746862 Z" id="Stroke-11" fill="#bde5e6"/></g></g></svg>